:SAMPLES-PER-SECOND 30
:FULLY-SPECIFIED
:DEGREES
149
root  -35.6448 41.0277 -39.9117 175.156 7.00951 178.848
RightUpLeg  -6.74427 -5.28888 -5.86485
RightLeg  9.54706 3.29981 0.406966
RightFoot  -1.05459 -0.309146 3.38563
RightToes  2.32829e-010 0 -3.6325e-017
Spine  4.64245 -0.386402 0.088082
Spine1  1.07625 -0.503482 0.222974
HEad  -7.2807 4.15332 -1.75091
LeftShoulder1  3.51601 -4.91061 -35.5812
LeftArm  -17.9099 24.0511 -24.201
LeftForeArm  26.5336 -19.7974 -3.07849
LeftHand  -0.244104 0.0205437 5.32207
RightShoulder  4.03467 6.31217 35.1092
RightArm  -15.5515 -25.1869 30.4054
RightForeArm  7.61983 9.3226 4.58547
RightHand  -1.16595 3.46976 -15.4431
LeftUpLeg  -2.43796 4.54918 -0.961855
LeftLeg  6.26937 9.56133 -4.77276
LeftFoot  0.361715 -0.395111 3.83286
LeftToes  -2.63786e-011 3.77076e-011 -4.2586e-012
150
root  -35.6902 41.1218 -40.3713 175.817 7.16719 178.842
RightUpLeg  -6.12163 -5.51714 -5.7228
RightLeg  7.25417 4.82155 0.571481
RightFoot  2.62891 -0.192047 1.67321
RightToes  2.32829e-010 0 -3.6325e-017
Spine  4.34559 -0.587186 0.126518
Spine1  -0.721062 -0.725339 0.48062
HEad  -5.66711 5.00062 -1.69676
LeftShoulder1  2.34123 -2.97104 -29.9757
LeftArm  -16.7267 25.1085 -22.3504
LeftForeArm  23.4243 -16.0777 -2.89542
LeftHand  -0.244104 0.0205437 5.32207
RightShoulder  2.95325 4.52746 30.8056
RightArm  -16.9005 -25.7174 27.0729
RightForeArm  5.64731 8.68612 4.09083
RightHand  -1.12241 3.333 -15.1086
LeftUpLeg  -1.64039 4.21622 -1.11771
LeftLeg  4.71618 9.86773 -5.02974
LeftFoot  0.337464 -0.392279 3.81472
LeftToes  -2.63786e-011 3.77076e-011 -4.2586e-012
151
root  -35.7513 41.2012 -40.8132 176.529 7.76862 179.151
RightUpLeg  -5.67707 -5.48148 -5.51883
RightLeg  6.32279 5.01572 0.608114
RightFoot  3.1346 -0.137645 1.2511
RightToes  2.32829e-010 0 -3.6325e-017
Spine  3.68274 -0.629939 1.02964
Spine1  -1.99453 -0.677846 0.00844843
HEad  -4.1814 5.69091 -1.78732
LeftShoulder1  1.50106 -1.33624 -24.6559
LeftArm  -15.7028 26.4797 -18.9958
LeftForeArm  19.2889 -12.8067 -2.81395
LeftHand  -0.244104 0.0205437 5.32207
RightShoulder  2.1055 2.95937 26.524
RightArm  -16.3628 -25.1558 21.4152
RightForeArm  2.66308 8.01333 4.00831
RightHand  -1.1761 3.56445 -15.4146
LeftUpLeg  -1.20175 4.11467 -1.05253
LeftLeg  3.82881 10.4201 -4.96295
LeftFoot  0.0466912 -0.407638 4.08517
LeftToes  -2.63786e-011 3.77076e-011 -4.2586e-012
152
root  -35.8026 41.2453 -41.2204 177.084 8.26843 179.463
RightUpLeg  -5.14245 -5.98779 -5.69455
RightLeg  5.48488 5.48196 1.15022
RightFoot  2.31847 -0.194291 1.75349
RightToes  2.32829e-010 0 -3.6325e-017
Spine  2.78342 -0.583543 1.86667
Spine1  -2.36092 -0.584399 -0.410073
HEad  -3.31576 6.04021 -1.88835
LeftShoulder1  0.933629 0.00983669 -20.0328
LeftArm  -14.0337 27.0295 -14.3295
LeftForeArm  16.2872 -10.1447 -2.77645
LeftHand  -0.244104 0.0205437 5.32207
RightShoulder  1.49771 1.77718 22.0829
RightArm  -15.1375 -23.5564 14.9207
RightForeArm  -0.485177 6.94915 4.06544
RightHand  -1.29943 4.00588 -16.2198
LeftUpLeg  -0.991878 4.14861 -0.942326
LeftLeg  3.65921 10.7989 -4.82184
LeftFoot  -0.542429 -0.398748 4.25044
LeftToes  -2.63786e-011 3.77076e-011 -4.2586e-012
153
root  -35.8199 41.2694 -41.5756 177.397 8.39343 179.617
RightUpLeg  -4.59747 -6.74795 -6.08595
RightLeg  4.81559 6.37216 1.91584
RightFoot  2.15621 -0.243811 2.18299
RightToes  2.32829e-010 0 -3.6325e-017
Spine  2.11789 -0.510675 2.15219
Spine1  -2.34192 -0.538572 -0.363344
HEad  -3.09175 5.99715 -1.74157
LeftShoulder1  0.536797 1.13758 -15.581
LeftArm  -12.0272 26.6645 -9.48709
LeftForeArm  15.4362 -8.3667 -2.86209
LeftHand  -0.244104 0.0205437 5.32207
RightShoulder  0.98329 0.614357 17.2171
RightArm  -14.1581 -21.4245 9.23736
RightForeArm  -3.75754 5.67476 4.15981
RightHand  -1.38774 4.13814 -17.0685
LeftUpLeg  -0.626458 4.23028 -0.853296
LeftLeg  3.49898 10.7898 -4.85713
LeftFoot  -1.04214 -0.367 4.14052
LeftToes  -2.63786e-011 3.77076e-011 -4.2586e-012
154
root  -35.8001 41.2959 -41.8745 177.569 8.20271 179.668
RightUpLeg  -4.11954 -7.03502 -6.26189
RightLeg  4.55166 6.5774 2.16568
RightFoot  2.29695 -0.24068 2.14277
RightToes  2.32829e-010 0 -3.6325e-017
Spine  1.87331 -0.455397 2.07611
Spine1  -2.51463 -0.526515 -0.0907718
HEad  -3.19856 5.73461 -1.36556
LeftShoulder1  0.276354 2.02756 -11.1295
LeftArm  -10.3078 26.0225 -5.26645
LeftForeArm  16.308 -8.12817 -3.09075
LeftHand  -0.244104 0.0205437 5.32207
RightShoulder  0.506292 -0.87966 12.1579
RightArm  -13.382 -19.0437 4.9985
RightForeArm  -6.29173 4.76736 4.37352
RightHand  -1.32305 3.57647 -17.2616
LeftUpLeg  -0.0892841 4.2114 -0.827151
LeftLeg  3.04416 10.5785 -4.94255
LeftFoot  -1.26591 -0.34392 3.9872
LeftToes  -2.63786e-011 3.77076e-011 -4.2586e-012
155
root  -35.756 41.3262 -42.1181 177.754 7.82094 179.704
RightUpLeg  -3.72067 -6.788 -6.13376
RightLeg  4.39558 5.85245 1.85803
RightFoot  1.96003 -0.199073 1.82011
RightToes  2.32829e-010 0 -3.6325e-017
Spine  1.76661 -0.437577 2.00101
Spine1  -2.76824 -0.523814 0.0409888
HEad  -3.42508 5.42789 -1.04033
LeftShoulder1  0.10867 2.80583 -7.22657
LeftArm  -9.28031 25.1173 -1.93308
LeftForeArm  17.6904 -9.24562 -3.35678
LeftHand  -0.244104 0.0205437 5.32207
RightShoulder  0.144476 -2.53818 7.42741
RightArm  -12.7495 -16.5477 2.08212
RightForeArm  -6.37036 4.42995 4.6153
RightHand  -1.09352 2.53824 -16.1167
LeftUpLeg  0.298817 4.04317 -0.872402
LeftLeg  2.63074 10.3488 -4.86343
LeftFoot  -1.38693 -0.332831 3.9168
LeftToes  -2.63786e-011 3.77076e-011 -4.2586e-012
156
root  -35.7033 41.3493 -42.3061 177.981 7.37224 179.767
RightUpLeg  -3.45279 -6.52392 -5.93615
RightLeg  4.15946 5.06463 1.58623
RightFoot  1.59017 -0.152447 1.44139
RightToes  2.32829e-010 0 -3.6325e-017
Spine  1.60709 -0.437111 2.17844
Spine1  -2.80141 -0.492298 -0.159217
HEad  -3.75133 5.10832 -0.839266
LeftShoulder1  -0.0175349 3.6858 -4.17218
LeftArm  -9.31394 23.5379 0.121175
LeftForeArm  18.3483 -10.5062 -3.45101
LeftHand  -0.244104 0.0205437 5.32207
RightShoulder  -0.047285 -3.90467 3.42064
RightArm  -12.6439 -14.2438 0.228154
RightForeArm  -4.46358 4.30968 4.68093
RightHand  -0.872181 1.80257 -14.2188
LeftUpLeg  0.412099 3.86537 -0.897833
LeftLeg  2.49287 10.115 -4.69247
LeftFoot  -1.54423 -0.322473 3.87058
LeftToes  -2.63786e-011 3.77076e-011 -4.2586e-012
157
root  -35.6461 41.3622 -42.4405 178.155 6.99854 179.843
RightUpLeg  -3.28927 -6.52137 -5.8429
RightLeg  3.99498 4.74783 1.63523
RightFoot  1.63023 -0.126848 1.21318
RightToes  2.32829e-010 0 -3.6325e-017
Spine  1.61893 -0.420484 2.58597
Spine1  -2.75813 -0.400741 -0.640415
HEad  -4.13717 4.85806 -0.604474
LeftShoulder1  -0.0996642 4.53405 -1.76035
LeftArm  -10.3793 21.5285 0.767616
LeftForeArm  18.0275 -10.9691 -3.33987
LeftHand  -0.244104 0.0205437 5.32207
RightShoulder  -0.110608 -4.76074 0.331588
RightArm  -13.1547 -12.2565 -0.807138
RightForeArm  -3.19123 4.04545 4.60578
RightHand  -0.790505 1.68647 -13.1102
LeftUpLeg  0.453059 3.81029 -0.835897
LeftLeg  2.46522 9.88216 -4.59881
LeftFoot  -1.67636 -0.317164 3.8697
LeftToes  -2.63786e-011 3.77076e-011 -4.2586e-012
158
root  -35.574 41.3707 -42.5303 178.213 6.74736 179.87
RightUpLeg  -3.09099 -6.63616 -5.85169
RightLeg  3.92306 4.62639 1.78885
RightFoot  1.6786 -0.131503 1.2526
RightToes  2.32829e-010 0 -3.6325e-017
Spine  1.98854 -0.406417 2.87377
Spine1  -2.89942 -0.310121 -1.08608
HEad  -4.49861 4.93545 -0.404006
LeftShoulder1  -0.120293 4.9582 -0.00294196
LeftArm  -11.5082 19.7552 0.670067
LeftForeArm  17.3106 -10.6446 -3.21541
LeftHand  -0.244104 0.0205437 5.32207
RightShoulder  -0.116167 -5.1872 -1.77078
RightArm  -13.7257 -10.3451 -1.30475
RightForeArm  -3.66229 3.68473 4.6212
RightHand  -0.797216 1.67086 -13.2416
LeftUpLeg  0.599166 3.82474 -0.757068
LeftLeg  2.34791 9.69115 -4.56624
LeftFoot  -1.71188 -0.321174 3.94159
LeftToes  -2.63786e-011 3.77076e-011 -4.2586e-012
159
root  -35.4805 41.3818 -42.5901 178.258 6.53787 179.82
RightUpLeg  -2.88176 -6.71714 -5.88178
RightLeg  3.7646 4.43049 1.87682
RightFoot  1.51733 -0.140723 1.33973
RightToes  2.32829e-010 0 -3.6325e-017
Spine  2.43591 -0.433717 2.78796
Spine1  -3.0917 -0.305866 -1.22229
HEad  -4.847 5.14081 -0.451656
LeftShoulder1  -0.102189 4.85888 0.777377
LeftArm  -11.8333 18.3141 0.601499
LeftForeArm  16.6957 -9.86949 -3.25906
LeftHand  -0.244104 0.0205437 5.32207
RightShoulder  -0.103522 -5.25836 -2.8844
RightArm  -13.8205 -8.38105 -1.54419
RightForeArm  -4.53761 3.43325 4.82551
RightHand  -0.801479 1.47193 -13.6789
LeftUpLeg  0.771542 3.78245 -0.735543
LeftLeg  2.09558 9.53487 -4.51081
LeftFoot  -1.64924 -0.32221 3.93988
LeftToes  -2.63786e-011 3.77076e-011 -4.2586e-012
160
root  -35.3728 41.397 -42.6338 178.479 6.29485 179.759
RightUpLeg  -2.88418 -6.75903 -5.83331
RightLeg  3.50307 4.2023 1.95239
RightFoot  1.53412 -0.116727 1.12793
RightToes  2.32829e-010 0 -3.6325e-017
Spine  2.57976 -0.481381 2.52042
Spine1  -3.11824 -0.357185 -1.14374
HEad  -5.1062 5.12737 -0.586759
LeftShoulder1  -0.0715079 4.45216 0.645176
LeftArm  -11.5386 16.8614 0.573933
LeftForeArm  16.0906 -8.80855 -3.46596
LeftHand  -0.244104 0.0205437 5.32207
RightShoulder  -0.0867663 -5.03354 -3.12031
RightArm  -13.5989 -6.53593 -1.61058
RightForeArm  -4.53837 3.20469 5.06815
RightHand  -0.802643 1.44934 -13.7425
LeftUpLeg  0.748552 3.65996 -0.724919
LeftLeg  1.7868 9.374 -4.43211
LeftFoot  -1.5267 -0.309002 3.72293
LeftToes  -2.63786e-011 3.77076e-011 -4.2586e-012
161
root  -35.2607 41.412 -42.6665 178.91 6.01292 179.766
RightUpLeg  -3.13756 -6.7692 -5.663
RightLeg  3.2516 3.91985 2.05978
RightFoot  1.81205 -0.0651814 0.672434
RightToes  2.32829e-010 0 -3.6325e-017
Spine  2.49831 -0.498987 2.34169
Spine1  -3.13413 -0.385239 -1.02991
HEad  -5.14439 5.11255 -0.595868
LeftShoulder1  -0.0273194 3.86916 0.100601
LeftArm  -11.2099 15.4311 0.14686
LeftForeArm  15.2618 -7.60227 -3.68292
LeftHand  -0.244104 0.0205437 5.32207
RightShoulder  -0.0719831 -4.71675 -2.8242
RightArm  -13.6725 -4.93307 -1.33661
RightForeArm  -3.73715 2.71135 5.1327
RightHand  -0.848806 1.91213 -13.635
LeftUpLeg  0.425247 3.51049 -0.654912
LeftLeg  1.5917 9.1857 -4.32437
LeftFoot  -1.42736 -0.285217 3.38481
LeftToes  -2.63786e-011 3.77076e-011 -4.2586e-012
162
root  -35.1471 41.4239 -42.6845 179.376 5.70518 179.838
RightUpLeg  -3.37468 -6.75751 -5.44789
RightLeg  2.95951 3.51138 2.18543
RightFoot  1.96288 -0.0327095 0.394846
RightToes  2.32829e-010 0 -3.6325e-017
Spine  2.57798 -0.489625 2.1906
Spine1  -3.38866 -0.402349 -0.814083
HEad  -5.12465 5.01636 -0.618392
LeftShoulder1  0.033306 3.16663 -0.542203
LeftArm  -11.0631 14.3444 -0.717021
LeftForeArm  14.5709 -6.43648 -3.81655
LeftHand  -0.244104 0.0205437 5.32207
RightShoulder  -0.0601398 -4.45177 -2.36231
RightArm  -14.261 -3.56809 -0.697145
RightForeArm  -2.5544 1.942 4.96838
RightHand  -0.911669 2.54103 -13.5106
LeftUpLeg  -0.0654257 3.3792 -0.531964
LeftLeg  1.61973 8.94937 -4.1534
LeftFoot  -1.41941 -0.263594 3.13449
LeftToes  -2.63786e-011 3.77076e-011 -4.2586e-012
163
root  -35.0336 41.4355 -42.6895 179.743 5.40627 179.916
RightUpLeg  -3.41616 -6.77274 -5.28099
RightLeg  2.49009 3.10614 2.33596
RightFoot  1.93989 -0.0434813 0.48693
RightToes  2.32829e-010 0 -3.6325e-017
Spine  2.91214 -0.495949 1.96303
Spine1  -3.78466 -0.446307 -0.518437
HEad  -5.23991 5.01654 -0.792289
LeftShoulder1  0.0979664 2.51068 -1.25242
LeftArm  -10.8714 13.5955 -1.55625
LeftForeArm  14.4308 -5.40552 -3.91466
LeftHand  -0.244104 0.0205437 5.32207
RightShoulder  -0.0428587 -4.12602 -1.70177
RightArm  -14.8566 -2.53558 -0.119455
RightForeArm  -1.28109 1.26413 4.76198
RightHand  -0.920474 2.84254 -13.1583
LeftUpLeg  -0.515622 3.30612 -0.381614
LeftLeg  1.74919 8.66929 -3.97957
LeftFoot  -1.45808 -0.25364 3.03988
LeftToes  -2.63786e-011 3.77076e-011 -4.2586e-012
